<svg width="13" height="14" viewBox="0 0 13 14" fill="none" xmlns="http://www.w3.org/2000/svg">
<g clip-path="url(#clip0_48_4655)">
<path d="M11.099 2.5719C8.56434 0.0372312 4.43881 0.0372312 1.90414 2.5719C0.676337 3.80018 0 5.43289 0 7.16932C0 8.90576 0.676337 10.5385 1.90414 11.7663C3.17173 13.0339 4.83666 13.6674 6.50156 13.6674C8.16647 13.6674 9.83142 13.0339 11.099 11.7663C13.6337 9.2316 13.6337 5.10705 11.099 2.5719ZM10.3869 11.0542C8.24454 13.1965 4.75858 13.1965 2.61622 11.0542C1.5788 10.0167 1.00721 8.63684 1.00721 7.16932C1.00721 5.70181 1.5788 4.32192 2.61622 3.28399C4.75858 1.14163 8.24454 1.14214 10.3869 3.28399C12.5287 5.42634 12.5287 8.91231 10.3869 11.0542Z" fill="#737373"/>
<path d="M8.67144 8.56094L7.24572 7.13725L8.67144 5.71356C8.86784 5.51716 8.86784 5.19838 8.67195 5.00145C8.47504 4.80404 8.15626 4.80454 7.95935 5.00094L6.53264 6.42565L5.10592 5.00094C4.90902 4.80454 4.59024 4.80404 4.39333 5.00145C4.19693 5.19836 4.19693 5.51714 4.39384 5.71356L5.81956 7.13725L4.39384 8.56094C4.19693 8.75734 4.19693 9.07612 4.39333 9.27305C4.49154 9.37175 4.62096 9.4206 4.74989 9.4206C4.87883 9.4206 5.00774 9.37124 5.10595 9.27354L6.53266 7.84883L7.95938 9.27354C8.05759 9.37175 8.1865 9.4206 8.31543 9.4206C8.44437 9.4206 8.57379 9.37124 8.672 9.27305C8.86834 9.07612 8.86834 8.75734 8.67144 8.56094Z" fill="#737373"/>
</g>
<defs>
<clipPath id="clip0_48_4655">
<rect width="13" height="13" fill="white" transform="translate(0 0.668457)"/>
</clipPath>
</defs>
</svg>
