<svg width="60" height="49" viewBox="0 0 60 49" fill="none" xmlns="http://www.w3.org/2000/svg">
<path d="M30.7871 11.0091C30.6555 11.4187 30.9106 11.8339 31.3258 11.9489L31.4195 11.9749L31.4242 11.9699C31.8077 12.0281 32.1956 11.8156 32.314 11.4445C33.326 8.28665 36.52 6.06946 40.0905 6.06946C40.5196 6.06946 40.8883 5.74354 40.8883 5.31706C40.8883 4.89055 40.5195 4.56465 40.0905 4.56465C35.689 4.56465 31.9798 7.28674 30.7871 11.0091ZM30.7871 11.0091L30.9408 11.0584M30.7871 11.0091C30.7871 11.0091 30.787 11.0091 30.787 11.0092L30.9408 11.0584M30.9408 11.0584C30.8403 11.3712 31.0321 11.7001 31.3689 11.7934L30.9408 11.0584Z" fill="#3366FF" stroke="#F9FFF9" stroke-width="0.322847"/>
<path d="M48.9988 34.275H45.1808C44.8295 34.275 44.5445 34.0103 44.5445 33.684C44.5445 33.3577 44.8294 33.093 45.1808 33.093H48.9988C54.2618 33.093 58.5439 29.1162 58.5439 24.2284C58.5439 19.3407 54.2618 15.3638 48.9988 15.3638H48.907C48.7225 15.3638 48.547 15.2895 48.4261 15.1599C48.3052 15.0303 48.2507 14.8585 48.277 14.6888C48.3338 14.3207 48.3625 13.9509 48.3625 13.5909C48.3625 9.35486 44.6512 5.90814 40.09 5.90814C38.3155 5.90814 36.6233 6.42314 35.196 7.39781C34.8824 7.61183 34.4369 7.51686 34.2556 7.19646C30.2135 0.0482156 19.6559 -0.91172 14.1823 5.30663C11.8765 7.92632 10.9705 11.3341 11.6965 14.6555C11.7765 15.0223 11.4742 15.3642 11.0729 15.3642H10.8179C5.55491 15.3642 1.27275 19.3411 1.27275 24.2289C1.27275 29.1166 5.55491 33.0935 10.8179 33.0935H14.6359C14.9872 33.0935 15.2722 33.3582 15.2722 33.6845C15.2722 34.0108 14.9872 34.2755 14.6359 34.2755H10.8179C4.85303 34.2755 0 29.7684 0 24.2288C0 18.8446 4.58435 14.4359 10.3183 14.1928C9.77973 10.7469 10.8097 7.27115 13.1969 4.55863C19.0571 -2.09954 30.2878 -1.35325 35.0353 6.07109C36.5499 5.18927 38.2829 4.72667 40.0898 4.72667C45.6159 4.72667 49.9949 9.09484 49.6117 14.1983C55.2929 14.4942 59.8164 18.8796 59.8164 24.2284C59.8164 29.7684 54.9634 34.275 48.9985 34.275L48.9988 34.275Z" fill="#3366FF"/>
<path d="M13.7526 33.3502C13.7526 41.5972 20.9731 48.2862 29.8228 48.2862C38.6727 48.2862 45.893 41.5971 45.893 33.3502C45.893 25.1033 38.6727 18.4143 29.8228 18.4143C20.973 18.4143 13.7526 25.1034 13.7526 33.3502ZM15.3485 33.3502C15.3485 25.9557 21.8304 19.9193 29.8228 19.9193C37.8151 19.9193 44.2972 25.9556 44.2972 33.3502C44.2972 40.7447 37.8151 46.7812 29.8228 46.7812C21.8305 46.7812 15.3485 40.7449 15.3485 33.3502Z" fill="#3366FF" stroke="#F9FFF9" stroke-width="0.322847"/>
<path d="M29.487 39.2982C29.487 39.6372 29.7794 39.8922 30.1143 39.8922C30.4492 39.8922 30.7416 39.6376 30.7416 39.2982V28.0489C30.7416 27.7098 30.4492 27.4548 30.1143 27.4548C29.7794 27.4548 29.487 27.7098 29.487 28.0489V39.2982Z" fill="#3366FF" stroke="#B2CFF1" stroke-width="0.322847"/>
<path d="M30.5541 27.6259L30.4445 27.7439L30.5541 27.6259L34.2811 31.0872C34.5318 31.3201 34.5318 31.7027 34.2811 31.9356C34.1578 32.0504 33.998 32.1055 33.8418 32.1055L30.5541 27.6259ZM30.5541 27.6259C30.3102 27.3994 29.9191 27.3993 29.6754 27.626L30.5541 27.6259ZM33.4025 31.9357C33.5255 32.0499 33.6852 32.1055 33.8418 32.1055L26.7173 31.8174L26.8271 31.9357L26.8272 31.9356C26.8272 31.9356 26.8272 31.9356 26.8272 31.9356L30.1148 28.8824L33.4025 31.9357Z" fill="#3366FF" stroke="#B2CFF1" stroke-width="0.322847"/>
</svg>
