<svg width="32" height="32" viewBox="0 0 32 32" fill="none" xmlns="http://www.w3.org/2000/svg">
<path d="M28.806 3H9.70496C9.54843 2.99987 9.3934 3.03057 9.24873 3.09035C9.10406 3.15014 8.97258 3.23783 8.8618 3.34842C8.75102 3.45902 8.66311 3.59035 8.60308 3.73492C8.54306 3.87949 8.51209 4.03447 8.51196 4.191V9.5L19.581 12.75L30 9.5V4.191C29.9998 4.03438 29.9688 3.87932 29.9087 3.73469C29.8487 3.59005 29.7607 3.45868 29.6498 3.34807C29.5389 3.23746 29.4073 3.14979 29.2625 3.09007C29.1177 3.03034 28.9626 2.99974 28.806 3Z" fill="#41A5EE"/>
<path d="M30 9.5H8.51196V16L19.581 17.95L30 16V9.5Z" fill="#2B7CD3"/>
<path d="M8.51196 16V22.5L18.93 23.8L30 22.5V16H8.51196Z" fill="#185ABD"/>
<path d="M9.70496 29H28.805C28.9617 29.0004 29.1169 28.9699 29.2618 28.9102C29.4067 28.8506 29.5384 28.7629 29.6494 28.6523C29.7604 28.5417 29.8485 28.4102 29.9087 28.2655C29.9688 28.1208 29.9998 27.9657 30 27.809V22.5H8.51196V27.809C8.51209 27.9655 8.54306 28.1205 8.60308 28.2651C8.66311 28.4097 8.75102 28.541 8.8618 28.6516C8.97258 28.7622 9.10406 28.8499 9.24873 28.9096C9.3934 28.9694 9.54843 29.0001 9.70496 29Z" fill="#103F91"/>
<path opacity="0.1" d="M16.434 8.19995H8.51196V24.45H16.434C16.7496 24.4484 17.052 24.3225 17.2755 24.0996C17.4989 23.8766 17.6256 23.5746 17.628 23.259V9.39095C17.6256 9.07529 17.4989 8.77327 17.2755 8.55034C17.052 8.32741 16.7496 8.20152 16.434 8.19995Z" fill="black"/>
<path opacity="0.2" d="M15.783 8.8501H8.51196V25.1001H15.783C16.0986 25.0985 16.401 24.9726 16.6245 24.7497C16.848 24.5268 16.9746 24.2248 16.977 23.9091V10.0411C16.9746 9.72544 16.848 9.42342 16.6245 9.20049C16.401 8.97756 16.0986 8.85167 15.783 8.8501Z" fill="black"/>
<path opacity="0.2" d="M15.783 8.8501H8.51196V23.8001H15.783C16.0986 23.7985 16.401 23.6726 16.6245 23.4497C16.848 23.2268 16.9746 22.9248 16.977 22.6091V10.0411C16.9746 9.72544 16.848 9.42342 16.6245 9.20049C16.401 8.97756 16.0986 8.85167 15.783 8.8501Z" fill="black"/>
<path opacity="0.2" d="M15.132 8.8501H8.51196V23.8001H15.132C15.4476 23.7985 15.75 23.6726 15.9735 23.4497C16.1969 23.2268 16.3236 22.9248 16.326 22.6091V10.0411C16.3236 9.72544 16.1969 9.42342 15.9735 9.20049C15.75 8.97756 15.4476 8.85167 15.132 8.8501Z" fill="black"/>
<path d="M3.194 8.8501H15.132C15.4482 8.84983 15.7516 8.97513 15.9755 9.19846C16.1994 9.42179 16.3255 9.72487 16.326 10.0411V21.9591C16.3255 22.2753 16.1994 22.5784 15.9755 22.8017C15.7516 23.0251 15.4482 23.1504 15.132 23.1501H3.194C3.03738 23.1504 2.88224 23.1198 2.73746 23.06C2.59267 23.0003 2.46108 22.9126 2.35019 22.802C2.2393 22.6914 2.1513 22.56 2.09121 22.4154C2.03113 22.2708 2.00013 22.1157 2 21.9591V10.0411C2.00013 9.88448 2.03113 9.72942 2.09121 9.58479C2.1513 9.44015 2.2393 9.30877 2.35019 9.19817C2.46108 9.08756 2.59267 8.99989 2.73746 8.94016C2.88224 8.88044 3.03738 8.84984 3.194 8.8501Z" fill="url(#paint0_linear_384_11422)"/>
<path d="M6.89994 17.9881C6.92294 18.1721 6.93894 18.3321 6.94594 18.4691H6.97394C6.98394 18.3391 7.00594 18.1821 7.03894 17.9991C7.07194 17.8161 7.10094 17.6611 7.12794 17.5341L8.38294 12.1271H10.0069L11.3069 17.4531C11.3827 17.7826 11.4368 18.1166 11.4689 18.4531H11.4909C11.5148 18.1255 11.5599 17.7999 11.6259 17.4781L12.6649 12.1201H14.1419L12.3179 19.8681H10.5909L9.35394 14.7421C9.31794 14.5941 9.27728 14.4015 9.23194 14.1641C9.18661 13.9268 9.15861 13.7535 9.14794 13.6441H9.12694C9.11294 13.7701 9.08494 13.9571 9.04294 14.2051C9.00094 14.4541 8.96794 14.6371 8.94294 14.7571L7.77994 19.8711H6.02394L4.18994 12.1271H5.68994L6.82094 17.5451C6.8547 17.6914 6.88106 17.8392 6.89994 17.9881Z" fill="white"/>
<defs>
<linearGradient id="paint0_linear_384_11422" x1="4.494" y1="7.9141" x2="13.832" y2="24.0861" gradientUnits="userSpaceOnUse">
<stop stop-color="#2368C4"/>
<stop offset="0.5" stop-color="#1A5DBE"/>
<stop offset="1" stop-color="#1146AC"/>
</linearGradient>
</defs>
</svg>
